<svg width="147" height="52" viewBox="0 0 147 52" fill="none" xmlns="http://www.w3.org/2000/svg">
<path d="M10.5409 30.715C5.65668 31.2176 4.43585 26.1478 7.32264 26.6923C10.2094 27.2368 25.3534 15.6887 30.9854 12.4705C31.3876 13.275 37.9654 13.015 36.2864 14.2218C23.4135 23.4741 14.5636 27.8991 10.5409 30.715Z" fill="#48967E"/>
<path d="M19.7215 43.0432C25.7557 53.9046 11.7471 46.4036 11.7471 38.7605C11.7471 31.1173 35.4819 24.2786 36.2864 18.6468C36.2864 17.8423 40.5105 19.0491 39.907 21.4627C37.8955 29.5082 8.05581 37.0091 19.7215 43.0432Z" fill="#48967E"/>
<path d="M40.3095 19.0491C41.1139 21.4628 38.2979 25.4855 34.6774 26.6923C32.666 23.8764 39.071 14.994 31.0571 17.8423C30.6546 13.4173 26.1584 14.8841 31.7903 12.0682C35.2758 10.3254 40.3094 14.2219 40.3095 19.0491Z" fill="#48967E"/>
<path d="M6.84932 28.9637C6.04494 29.7682 0.562078 25.4414 5.01572 18.6387C9.46937 11.836 26.2864 7.31271 27.5406 0.935697V0.935697C30.8982 2.58577 29.7513 8.13587 26.7294 10.3414C12.9836 20.3737 5.77878 21.8262 6.84932 28.9637Z" fill="#99CA68"/>
<path d="M20.2135 50.8508C20.2135 50.8508 14.932 47.6703 19.4134 42.9132C23.8947 38.156 38.5064 32.1857 38.6942 28.0794V28.0794C41.3777 30.6956 41.1886 34.6309 38.0889 36.7375C30.8174 41.6794 20.0738 47.313 20.2135 50.8508Z" fill="#99CA68"/>
<g filter="url(#filter0_d_820_322)">
<path d="M54.6 13.64C58.2267 13.64 61.0933 14.1467 63.2 15.16C65.3333 16.1467 66.9467 17.2533 68.04 18.48C68.92 19.4933 69.64 20.6667 70.2 22C70.76 23.3067 71.04 24.88 71.04 26.72C71.04 28.08 70.7333 29.5067 70.12 31C69.5067 32.4667 68.7067 33.6533 67.72 34.56C66.68 35.5467 65.6933 36.3467 64.76 36.96C63.8533 37.5733 62.6133 38.08 61.04 38.48C59.4933 38.8533 57.52 39.04 55.12 39.04C53.3067 39.04 51.6667 38.84 50.2 38.44C48.7333 38.0133 48 37.3067 48 36.32C48 35.92 48.1733 35.6133 48.52 35.4C48.8933 35.16 49.2933 35.04 49.72 35.04C49.96 35.04 50.12 35.0533 50.2 35.08C50.3867 33.32 50.48 31.4533 50.48 29.48C50.48 27.2667 50.4267 25.44 50.32 24C50.2133 22.5333 50.0667 21.08 49.88 19.64C49.8533 19.4533 49.7867 18.9333 49.68 18.08C49.6 17.2267 49.56 16.36 49.56 15.48C49.56 14.92 49.84 14.4533 50.4 14.08C50.96 13.68 51.5333 13.48 52.12 13.48C52.4667 13.48 52.9333 13.5067 53.52 13.56C54 13.6133 54.36 13.64 54.6 13.64ZM54.08 35.28C54.72 35.3867 55.56 35.44 56.6 35.44C58.36 35.44 60.0267 35.08 61.6 34.36C63.1733 33.6133 64.44 32.5867 65.4 31.28C66.36 29.9467 66.84 28.4133 66.84 26.68C66.84 24.8667 66.52 23.32 65.88 22.04C65.24 20.76 64.2533 19.7067 62.92 18.88C61.9333 18.2667 60.72 17.8267 59.28 17.56C57.84 17.2667 56.1067 17.12 54.08 17.12C54.08 17.76 54.12 18.56 54.2 19.52C54.2 19.84 54.2267 20.4 54.28 21.2C54.44 24.2933 54.52 26.7867 54.52 28.68C54.52 31.4267 54.3733 33.6267 54.08 35.28ZM93.2528 38.4C92.9061 37.9467 92.6128 37.4533 92.3728 36.92C92.1328 36.36 91.8795 35.6933 91.6128 34.92C91.5595 34.7867 91.3995 34.3867 91.1328 33.72C90.8928 33.0533 90.6128 32.48 90.2928 32C88.6128 32.24 87.2395 32.36 86.1728 32.36C85.5861 32.36 84.9328 32.3467 84.2128 32.32C83.5195 32.2667 82.9995 32.24 82.6528 32.24C81.3195 32.1333 80.2528 32.08 79.4528 32.08C79.1328 32.5067 78.8528 32.96 78.6128 33.44C78.3995 33.92 78.1195 34.64 77.7728 35.6C77.2928 36.9867 76.8795 37.9733 76.5328 38.56C76.2928 38.96 75.8261 39.16 75.1328 39.16C74.5461 39.16 73.9995 39.04 73.4928 38.8C73.0128 38.5333 72.7728 38.1733 72.7728 37.72C72.9861 36.7067 73.3195 35.64 73.7728 34.52C74.2528 33.3733 74.9328 31.8533 75.8128 29.96L77.4128 26.04C78.2928 23.8 79.0928 21.88 79.8128 20.28C80.5595 18.68 81.5328 16.7867 82.7328 14.6C82.8928 14.28 83.1595 14.0133 83.5328 13.8C83.9061 13.56 84.3195 13.44 84.7728 13.44C85.2795 13.44 85.6395 13.48 85.8528 13.56C86.0928 13.6133 86.2795 13.72 86.4128 13.88C86.5461 14.0133 86.7461 14.3067 87.0128 14.76C87.9195 16.1733 88.6928 17.6267 89.3328 19.12C89.9995 20.6133 90.8395 22.68 91.8528 25.32L92.6928 27.44C93.4395 29.36 94.0795 30.9733 94.6128 32.28C95.1728 33.56 95.7861 34.7333 96.4528 35.8C96.8795 36.4933 97.0928 36.9733 97.0928 37.24C97.0928 37.88 96.8928 38.3733 96.4928 38.72C96.1195 39.04 95.6261 39.2 95.0128 39.2C94.2395 39.2 93.6528 38.9333 93.2528 38.4ZM89.1328 28.72C88.7061 27.8133 88.0928 26.24 87.2928 24C86.4661 21.6 85.6395 19.6933 84.8128 18.28C84.3061 19.56 83.5595 21.2133 82.5728 23.24C81.9061 24.4933 81.1461 26.3067 80.2928 28.68C81.9995 28.8933 83.8395 29 85.8128 29C87.2261 29 88.3328 28.9067 89.1328 28.72ZM121.399 30.92C121.399 32.4133 120.825 33.84 119.679 35.2C118.559 36.5333 117.132 37.5867 115.399 38.36C114.652 38.6 113.705 38.8 112.559 38.96C111.412 39.0933 110.252 39.1733 109.079 39.2C106.785 39.2 104.652 38.88 102.679 38.24C102.332 38.16 101.932 37.9333 101.479 37.56C101.025 37.1867 100.812 36.6933 100.839 36.08V34.72C100.839 33.2267 100.799 31.7867 100.719 30.4C100.665 28.5867 100.639 27.2 100.639 26.24L100.599 21.72C100.599 20.12 100.652 18.5067 100.759 16.88C100.785 16.0533 101.092 15.36 101.679 14.8C102.292 14.2133 103.052 13.8533 103.959 13.72C104.305 13.6933 104.932 13.68 105.839 13.68L109.679 13.72C111.519 13.72 113.159 13.96 114.599 14.44C116.039 14.92 117.279 15.6933 118.319 16.76C118.665 17.16 118.945 17.6933 119.159 18.36C119.372 19 119.479 19.6267 119.479 20.24C119.399 22.4 118.159 24.16 115.759 25.52C117.679 25.76 119.092 26.36 119.999 27.32C120.932 28.28 121.399 29.48 121.399 30.92ZM106.279 24.56C106.545 24.5333 106.972 24.52 107.559 24.52H109.359C110.159 24.52 110.719 24.4933 111.039 24.44C113.759 23.8267 115.119 22.7467 115.119 21.2C115.119 20.8 115.052 20.3733 114.919 19.92C114.812 19.4667 114.665 19.1467 114.479 18.96C113.785 18.2933 113.132 17.8667 112.519 17.68C111.905 17.4667 110.999 17.36 109.799 17.36C107.479 17.36 105.812 17.48 104.799 17.72L104.839 24.6L106.279 24.56ZM108.119 35.84C110.892 35.84 113.065 35.4933 114.639 34.8C116.239 34.1067 117.039 32.7467 117.039 30.72C117.039 29.92 116.452 29.2667 115.279 28.76C114.105 28.2267 112.825 27.96 111.439 27.96C109.732 27.96 108.532 28 107.839 28.08C107.252 28.1333 106.852 28.16 106.639 28.16C106.239 28.16 105.959 28.1467 105.799 28.12C105.665 28.12 105.505 28.12 105.319 28.12C105.159 28.0933 104.985 28.0933 104.799 28.12L104.839 29.44C104.865 29.76 104.905 30.64 104.959 32.08C105.039 33.4933 105.052 34.4933 104.999 35.08C105.612 35.3467 106.145 35.5467 106.599 35.68C107.052 35.7867 107.559 35.84 108.119 35.84ZM144.072 36.44C144.099 37 144.032 37.4 143.872 37.64C143.712 37.8533 143.392 38.08 142.912 38.32C142.192 38.6667 141.339 38.8933 140.352 39C139.392 39.1067 138.152 39.16 136.632 39.16H133.912C131.539 39.16 129.779 38.76 128.632 37.96C127.486 37.1333 126.766 36.1467 126.472 35C126.179 33.8533 126.006 32.3733 125.952 30.56C125.926 29.9467 125.912 29.04 125.912 27.84C125.912 25.2267 126.139 21.7333 126.592 17.36C126.726 16.08 127.192 15.16 127.992 14.6C128.792 14.0133 129.699 13.72 130.712 13.72C131.539 13.72 132.886 13.6933 134.752 13.64L138.272 13.6C139.712 13.6 140.752 13.64 141.392 13.72C142.192 13.88 142.792 14.0667 143.192 14.28C143.592 14.4667 143.806 14.8 143.832 15.28C143.832 15.8133 143.659 16.3333 143.312 16.84C142.966 17.3467 142.432 17.6 141.712 17.6C140.886 17.6 139.699 17.5467 138.152 17.44C136.606 17.3333 135.432 17.28 134.632 17.28C133.912 17.28 133.259 17.32 132.672 17.4C131.926 17.4533 131.392 17.5467 131.072 17.68C130.752 17.8133 130.579 18.04 130.552 18.36C130.259 21.2667 130.139 23.2933 130.192 24.44C130.806 24.52 131.419 24.56 132.032 24.56C132.646 24.56 133.486 24.5067 134.552 24.4C134.819 24.3733 135.152 24.3467 135.552 24.32C135.952 24.2933 136.406 24.28 136.912 24.28C137.206 24.28 137.672 24.3067 138.312 24.36L139.552 24.4C140.779 24.4 141.392 24.84 141.392 25.72C141.392 26.2533 141.246 26.68 140.952 27C140.659 27.32 140.139 27.56 139.392 27.72C138.379 27.9067 136.739 28 134.472 28H132.032C131.526 28 130.899 27.9733 130.152 27.92C130.126 28.4 130.112 29.0933 130.112 30C130.112 31.1733 130.126 32 130.152 32.48C130.232 34.3467 131.526 35.28 134.032 35.28C134.886 35.28 135.792 35.3067 136.752 35.36L138.232 35.4C138.926 35.4 139.499 35.3333 139.952 35.2C140.406 35.04 140.846 34.9067 141.272 34.8C141.726 34.6667 142.139 34.6 142.512 34.6C143.019 34.6 143.406 34.8 143.672 35.2C143.939 35.5733 144.072 35.9867 144.072 36.44Z" fill="url(#paint0_linear_820_322)"/>
</g>
<defs>
<filter id="filter0_d_820_322" x="46" y="13.44" width="100.112" height="29.76" filterUnits="userSpaceOnUse" color-interpolation-filters="sRGB">
<feFlood flood-opacity="0" result="BackgroundImageFix"/>
<feColorMatrix in="SourceAlpha" type="matrix" values="0 0 0 0 0 0 0 0 0 0 0 0 0 0 0 0 0 0 127 0" result="hardAlpha"/>
<feOffset dy="2"/>
<feGaussianBlur stdDeviation="1"/>
<feComposite in2="hardAlpha" operator="out"/>
<feColorMatrix type="matrix" values="0 0 0 0 0 0 0 0 0 0 0 0 0 0 0 0 0 0 0.25 0"/>
<feBlend mode="normal" in2="BackgroundImageFix" result="effect1_dropShadow_820_322"/>
<feBlend mode="normal" in="SourceGraphic" in2="effect1_dropShadow_820_322" result="shape"/>
</filter>
<linearGradient id="paint0_linear_820_322" x1="96" y1="1" x2="96" y2="49" gradientUnits="userSpaceOnUse">
<stop stop-color="#48967E"/>
<stop offset="1" stop-color="#A3DF68"/>
</linearGradient>
</defs>
</svg>
